<svg xmlns="http://www.w3.org/2000/svg" xmlns:svg="http://www.w3.org/2000/svg" xmlns:xlink="http://www.w3.org/1999/xlink" version="1.0" height="710.1165664196014pt" width="805pt" viewBox="330 132 813 716.1165664196014" ><defs><style type="text/css">
            @font-face {
                font-family: 'noto_regular';
                src: url('https://app.creately.com/diagram/assets/fonts/noto/noto-regular.woff') format('woff'),
                     url('https://app.creately.com/diagram/assets/fonts/noto/noto-regular.woff2') format('woff2');
                font-weight: normal;
                font-style: normal;
            }
        p {
            margin: 0;
        }
        </style></defs><defs><style>
            span{ display: inline-block; }
        </style></defs><g id="tn3hkuxoiv"><g transform="translate(545 180)"><rect x="0" y="0" width="374.95003938674927" height="665.1165664196014" fill="rgba(255,255,255,1)" stroke="#898989" stroke-width="2" stroke-linecap="round" stroke-linejoin="round"/></g><g transform="translate(709.9750196933746, 190) rotate(0, 22.5, 0)" width="45" height="18"><text text-decoration="none" x="0.5" fill="rgb(84, 84, 84)" font-size="10pt" font-family="noto_regular"  y="17">System</text><text text-decoration="none" x="44.5" fill="#4b4b4b" font-size="10pt" font-family="noto_regular"  y="17"></text></g><g transform="translate(549.9750196933746, 135) rotate(0, 182.5, 40)" width="365" height="40"><text text-decoration="none" x="19" fill="rgb(0, 0, 0)" font-weight="bold" font-size="13pt" font-family="Arial"  y="19">E&#160;</text><text text-decoration="none" x="33" fill="rgb(0, 0, 0)" font-weight="bold" font-size="13pt" font-family="Arial"  y="19">-&#160;</text><text text-decoration="none" x="42" fill="rgb(0, 0, 0)" font-weight="bold" font-size="13pt" font-family="Arial"  y="19">Proctor&#160;</text><text text-decoration="none" x="111" fill="rgb(0, 0, 0)" font-weight="bold" font-size="13pt" font-family="Arial"  y="19">:&#160;</text><text text-decoration="none" x="120" fill="rgb(0, 0, 0)" font-weight="bold" font-size="13pt" font-family="Arial"  y="19">An&#160;</text><text text-decoration="none" x="147" fill="rgb(0, 0, 0)" font-weight="bold" font-size="13pt" font-family="Arial"  y="19">Online&#160;</text><text text-decoration="none" x="207" fill="rgb(0, 0, 0)" font-weight="bold" font-size="13pt" font-family="Arial"  y="19">Examination&#160;</text><text text-decoration="none" x="318" fill="rgb(0, 0, 0)" font-weight="bold" font-size="13pt" font-family="Arial"  y="19">For&#160;</text><text text-decoration="none" x="38" fill="rgb(0, 0, 0)" font-weight="bold" font-size="13pt" font-family="Arial"  y="43">DMMMSU&#160;</text><text text-decoration="none" x="125" fill="rgb(0, 0, 0)" font-weight="bold" font-size="13pt" font-family="Arial"  y="43">Open&#160;</text><text text-decoration="none" x="175" fill="rgb(0, 0, 0)" font-weight="bold" font-size="13pt" font-family="Arial"  y="43">University&#160;</text><text text-decoration="none" x="266" fill="rgb(0, 0, 0)" font-weight="bold" font-size="13pt" font-family="Arial"  y="43">System</text><text text-decoration="none" x="327" fill="#4b4b4b" font-size="10pt" font-family="noto_regular"  y="43"></text></g></g><g id="9ah6endxko"><g transform="translate(1020 305)"><ellipse cx="29.997795977175233" cy="13.751021456867456" rx="14.998897988587617" ry="13.751021456867456" fill="rgba(0,8,70,1)" stroke="#000846" stroke-width="2" stroke-linecap="round" stroke-linejoin="round"/><path d="M 29.997795977175233,27.50204291373491 L 29.997795977175233,66.00490299296378 L 59.995591954350466,110.00817165493964 M 29.997795977175233,66.00490299296378 L 0,110.00817165493964 M 2.9997795977175237,41.25306437060237 L 56.99581235663294,41.25306437060237" fill="none" stroke="#000846" stroke-width="2" stroke-linecap="round" stroke-linejoin="round"/><rect x="0" y="0" width="59.995591954350466" height="110.00817165493964" fill="rgba(255,255,255,0.01)" stroke="rgba(255,255,255,0.01)" stroke-width="2" stroke-linecap="round" stroke-linejoin="round"/></g><g transform="translate(1033.4977959771752, 425.00817165493964) rotate(0, 16.5, 0)" width="33" height="18"><text text-decoration="none" x="0.5" fill="rgb(84, 84, 84)" font-size="10pt" font-family="noto_regular"  y="17">Actor</text><text text-decoration="none" x="32.5" fill="#4b4b4b" font-size="10pt" font-family="noto_regular"  y="17"></text></g></g><g id="2a7q2h4yd8"><g transform="translate(400 200) rotate(-1.3570366022135527e-14)"><ellipse cx="29.997795977175233" cy="13.250983875125646" rx="14.998897988587617" ry="13.250983875125646" fill="rgba(0,8,70,1)" stroke="#000846" stroke-width="2" stroke-linecap="round" stroke-linejoin="round"/><path d="M 29.997795977175233,26.501967750251293 L 29.997795977175233,63.6047226006031 L 59.995591954350466,106.00787100100517 M 29.997795977175233,63.6047226006031 L 0,106.00787100100517 M 2.9997795977175237,39.75295162537694 L 56.99581235663294,39.75295162537694" fill="none" stroke="#000846" stroke-width="2" stroke-linecap="round" stroke-linejoin="round"/><rect x="0" y="0" width="59.995591954350466" height="106.00787100100517" fill="rgba(255,255,255,0.01)" stroke="rgba(255,255,255,0.01)" stroke-width="2" stroke-linecap="round" stroke-linejoin="round"/></g><g transform="translate(406.99779597717526, 311.0078710010052) rotate(0, 23, 0)" width="46" height="19"><text text-decoration="none" x="1.5" fill="rgb(0, 0, 0)" font-weight="bold" font-size="10pt" font-family="Arial Black"  y="17">Admin</text><text text-decoration="none" x="44.5" fill="#4b4b4b" font-size="10pt" font-family="noto_regular"  y="17"></text></g></g><g id="2majtieag3"><g transform="translate(675 215)"><ellipse cx="67.8056640625" cy="29.99996241927147" rx="67.8056640625" ry="29.99996241927147" fill="rgba(255,255,255,1)" stroke="#898989" stroke-width="2" stroke-linecap="round" stroke-linejoin="round"/></g><g transform="translate(689.3056640625, 235.49996241927147) rotate(0, 53.5, 9.5)" width="107" height="19"><text text-decoration="none" x="3.5" fill="rgb(0, 0, 0)" font-size="12pt" font-family="Arial"  y="17">System&#160;</text><text text-decoration="none" x="62.5" fill="rgb(0, 0, 0)" font-size="12pt" font-family="Arial"  y="17">Login</text><text text-decoration="none" x="103.5" fill="#4b4b4b" font-size="10pt" font-family="noto_regular"  y="17"></text></g></g><g id="1ophlw0ou1"><g transform="translate(675 300)"><ellipse cx="67.8056640625" cy="29.99996241927147" rx="67.8056640625" ry="29.99996241927147" fill="rgba(255,255,255,1)" stroke="#898989" stroke-width="2" stroke-linecap="round" stroke-linejoin="round"/></g><g transform="translate(675.8056640625, 320.49996241927147) rotate(0, 67, 9.5)" width="134" height="19"><text text-decoration="none" x="4" fill="rgb(0, 0, 0)" font-size="12pt" font-family="Arial"  y="17">Manage&#160;</text><text text-decoration="none" x="68" fill="rgb(0, 0, 0)" font-size="12pt" font-family="Arial"  y="17">Account</text><text text-decoration="none" x="130" fill="#4b4b4b" font-size="10pt" font-family="noto_regular"  y="17"></text></g></g><g id="7g2vwdzzyr"><g transform="translate(675 480)"><ellipse cx="67.8056640625" cy="29.99996241927147" rx="67.8056640625" ry="29.99996241927147" fill="rgba(255,255,255,1)" stroke="#898989" stroke-width="2" stroke-linecap="round" stroke-linejoin="round"/></g><g transform="translate(700.3056640625, 500.49996241927147) rotate(0, 42.5, 9.5)" width="85" height="19"><text text-decoration="none" x="2.5" fill="rgb(0, 0, 0)" font-size="12pt" font-family="Arial"  y="17">Take&#160;</text><text text-decoration="none" x="41.5" fill="rgb(0, 0, 0)" font-size="12pt" font-family="Arial"  y="17">Exam</text><text text-decoration="none" x="82.5" fill="#4b4b4b" font-size="10pt" font-family="noto_regular"  y="17"></text></g></g><g id="1e2eb612go"><g transform="translate(675 560)"><ellipse cx="67.8056640625" cy="29.99996241927147" rx="67.8056640625" ry="29.99996241927147" fill="rgba(255,255,255,1)" stroke="#898989" stroke-width="2" stroke-linecap="round" stroke-linejoin="round"/></g><g transform="translate(686.3056640625, 580.4999624192715) rotate(0, 56.5, 9.5)" width="113" height="19"><text text-decoration="none" x="4" fill="rgb(0, 0, 0)" font-size="12pt" font-family="Arial"  y="17">Check&#160;</text><text text-decoration="none" x="53" fill="rgb(0, 0, 0)" font-size="12pt" font-family="Arial"  y="17">Answer</text><text text-decoration="none" x="109" fill="#4b4b4b" font-size="10pt" font-family="noto_regular"  y="17"></text></g></g><g id="2z7q68v3dj"><g transform="translate(400 425)"><ellipse cx="29.99779354548454" cy="13.12597508174181" rx="14.99889677274227" ry="13.12597508174181" fill="rgba(0,8,70,1)" stroke="#000846" stroke-width="2" stroke-linecap="round" stroke-linejoin="round"/><path d="M 29.99779354548454,26.25195016348362 L 29.99779354548454,63.00468039236068 L 59.99558709096908,105.00780065393448 M 29.99779354548454,63.00468039236068 L 0,105.00780065393448 M 2.9997793545484543,39.37792524522543 L 56.99580773642063,39.37792524522543" fill="none" stroke="#000846" stroke-width="2" stroke-linecap="round" stroke-linejoin="round"/><rect x="0" y="0" width="59.99558709096908" height="105.00780065393448" fill="rgba(255,255,255,0.01)" stroke="rgba(255,255,255,0.01)" stroke-width="2" stroke-linecap="round" stroke-linejoin="round"/></g><g transform="translate(398.99779354548457, 535.0078006539345) rotate(0, 31, 0)" width="62" height="19"><text text-decoration="none" x="1" fill="rgb(255, 255, 255)" font-size="10pt" font-family="Arial Black"  y="17">Instructor</text><text text-decoration="none" x="61" fill="#4b4b4b" font-size="10pt" font-family="noto_regular"  y="17"></text></g></g><g id="1sfx8c5vko"><g transform="translate(675 745)"><ellipse cx="67.8056640625" cy="29.99996241927147" rx="67.8056640625" ry="29.99996241927147" fill="rgba(255,255,255,1)" stroke="#898989" stroke-width="2" stroke-linecap="round" stroke-linejoin="round"/></g><g transform="translate(694.8056640625, 765.4999624192715) rotate(0, 48, 9.5)" width="96" height="19"><text text-decoration="none" x="2.5" fill="rgb(0, 0, 0)" font-size="12pt" font-family="Arial"  y="17">View&#160;</text><text text-decoration="none" x="41.5" fill="rgb(0, 0, 0)" font-size="12pt" font-family="Arial"  y="17">Report</text><text text-decoration="none" x="93.5" fill="#4b4b4b" font-size="10pt" font-family="noto_regular"  y="17"></text></g></g><g id="d1xpjvh4kj"><g><path d="M 460,240 L 675,330" fill="none" stroke="#000846" stroke-width="2" stroke-linecap="round" stroke-linejoin="round"/></g></g><g id="2pcsnprwgj"><g><path d="M 1020,305 L 810,245" fill="none" stroke="#000846" stroke-width="2" stroke-linecap="round" stroke-linejoin="round"/></g></g><g id="29igvyl87a"><g><path d="M 1020,305 L 800,495" fill="none" stroke="#1d1363" stroke-width="2" stroke-linecap="round" stroke-linejoin="round"/></g></g><g id="5dkii8jkto"><g><path d="M 1020,305 L 800,670" fill="none" stroke="#0c004b" stroke-width="1.5" stroke-linecap="round" stroke-linejoin="round"/></g></g><g id="1yrfmsuzcj"><g><path d="M 460,465 L 675,775" fill="none" stroke="#000846" stroke-width="2" stroke-linecap="round" stroke-linejoin="round"/></g></g><g id="2myjqk5tz3"><g><path d="M 460,465 L 685,260" fill="none" stroke="#000846" stroke-width="2" stroke-linecap="round" stroke-linejoin="round"/></g></g><g id="c70z5zq2kn"><g transform="translate(675 655)"><ellipse cx="67.8056640625" cy="29.99996241927147" rx="67.8056640625" ry="29.99996241927147" fill="rgba(255,255,255,1)" stroke="#898989" stroke-width="2" stroke-linecap="round" stroke-linejoin="round"/></g><g transform="translate(696.8056640625, 675.4999624192715) rotate(0, 46, 9.5)" width="92" height="19"><text text-decoration="none" x="3.5" fill="rgb(0, 0, 0)" font-size="12pt" font-family="Arial"  y="17">View&#160;</text><text text-decoration="none" x="42.5" fill="rgb(0, 0, 0)" font-size="12pt" font-family="Arial"  y="17">score&#160;</text><text text-decoration="none" x="88.5" fill="#4b4b4b" font-size="10pt" font-family="noto_regular"  y="17"></text></g></g><g id="k4uaxenkbf"><g><path d="M 920,515 L 969.9750196933746,515 L 969.9750196933746,400 L 969.9750196933746,285 L 994.9875098466873,285 L 1020,285 L 1020,305" fill="none" stroke="#cccccc" stroke-width="NaN" stroke-linecap="round" stroke-linejoin="round"/></g></g><g id="1zgznmeoz7"><g><path d="M 460,240 L 675,245" fill="none" stroke="#000846" stroke-width="2" stroke-linecap="round" stroke-linejoin="round"/></g></g><g id="4xcck695je"><g transform="translate(675 385)"><ellipse cx="67.8056640625" cy="29.99996241927147" rx="67.8056640625" ry="29.99996241927147" fill="rgba(255,255,255,1)" stroke="#898989" stroke-width="2" stroke-linecap="round" stroke-linejoin="round"/></g><g transform="translate(708.3056640625, 395.99996241927147) rotate(0, 34.5, 19)" width="69" height="38"><text text-decoration="none" x="2.5" fill="rgb(0, 0, 0)" font-size="12pt" font-family="Arial"  y="17">Manage&#160;</text><text text-decoration="none" x="66.5" fill="rgb(0, 0, 0)" font-size="12pt" font-family="Arial"  y="17"></text><text text-decoration="none" x="14" fill="rgb(0, 0, 0)" font-size="12pt" font-family="Arial"  y="39">Exam</text><text text-decoration="none" x="55" fill="#4b4b4b" font-size="10pt" font-family="noto_regular"  y="39"></text></g></g><g id="6ajdoaiour"><g><path d="M 675,415 L 460,465" fill="none" stroke="#1d1363" stroke-width="2" stroke-linecap="round" stroke-linejoin="round"/></g></g><g id="1hibsrs7wj"><g transform="translate(335 305)"><rect x="0" y="0" width="185.0000023841858" height="44.99946594238281" fill="rgba(255,255,255,0.01)" stroke="rgba(255,255,255,0.01)" stroke-width="NaN" stroke-linecap="round" stroke-linejoin="round"/></g><g transform="translate(348.5000011920929, 315.4997329711914) rotate(0, 79, 12)" width="158" height="24"><text text-decoration="none" x="8" fill="rgb(0, 0, 0)" font-weight="bold" font-size="15pt" font-family="Leelawadee"  y="21">Administrator</text><text text-decoration="none" x="150" fill="#4b4b4b" font-size="10pt" font-family="noto_regular"  y="21"></text></g></g><g id="2f5emww8ue"><g transform="translate(975 425)"><rect x="0" y="0" width="150" height="42.77503967285156" fill="rgba(255,255,255,0.01)" stroke="rgba(255,255,255,0.01)" stroke-width="NaN" stroke-linecap="round" stroke-linejoin="round"/></g><g transform="translate(1005, 434.3875198364258) rotate(0, 45, 12)" width="90" height="24"><text text-decoration="none" x="5" fill="rgb(0, 0, 0)" font-weight="bold" font-size="15pt" font-family="Leelawadee"  y="21">Student</text><text text-decoration="none" x="85" fill="#4b4b4b" font-size="10pt" font-family="noto_regular"  y="21"></text></g></g><g id="10hu2gpefu"><g transform="translate(990 660)"><rect x="0" y="0" width="150" height="42.77503967285156" fill="rgba(255,255,255,0.01)" stroke="rgba(255,255,255,0.01)" stroke-width="NaN" stroke-linecap="round" stroke-linejoin="round"/></g><g transform="translate(1023, 669.3875198364258) rotate(0, 42, 12)" width="84" height="24"><text text-decoration="none" x="5.5" fill="rgb(0, 0, 0)" font-weight="bold" font-size="15pt" font-family="Leelawadee"  y="21">System</text><text text-decoration="none" x="78.5" fill="#4b4b4b" font-size="10pt" font-family="noto_regular"  y="21"></text></g></g><g id="1mikux8lio"><g transform="translate(370 535)"><rect x="0" y="0" width="150" height="50.99985492229462" fill="rgba(255,255,255,0.01)" stroke="rgba(255,255,255,0.01)" stroke-width="NaN" stroke-linecap="round" stroke-linejoin="round"/></g><g transform="translate(415, 548.4999274611473) rotate(0, 30, 12)" width="60" height="24"><text text-decoration="none" x="2.5" fill="rgb(0, 0, 0)" font-weight="bold" font-size="15pt" font-family="Leelawadee"  y="21">Tutor</text><text text-decoration="none" x="57.5" fill="#4b4b4b" font-size="10pt" font-family="noto_regular"  y="21"></text></g></g><g id="1u6xn71u14"><g><path d="M 675,590 L 460,465" fill="none" stroke="#000846" stroke-width="2" stroke-linecap="round" stroke-linejoin="round"/></g></g><g id="25t72xceg3"><g transform="translate(1025 565)"><rect x="0" y="0" width="89.99999463558197" height="79.99999523162842" fill="rgba(255,255,255,1)" stroke="#1d1363" stroke-width="2" stroke-linecap="round" stroke-linejoin="round"/></g><g transform="translate(1047.499997317791, 575) rotate(0, 22.5, 0)" width="45" height="18"><text text-decoration="none" x="0.5" fill="rgb(84, 84, 84)" font-size="10pt" font-family="noto_regular"  y="17">System</text><text text-decoration="none" x="44.5" fill="#4b4b4b" font-size="10pt" font-family="noto_regular"  y="17"></text></g></g><g id="26mwnhvm7z"><g><path d="M 1025,605 L 810,590" fill="none" stroke="#1d1363" stroke-width="2" stroke-linecap="round" stroke-linejoin="round"/></g></g><g id="eel9001nh1"><g><path d="M 460,240 L 675,415" fill="none" stroke="#000846" stroke-width="2" stroke-linecap="round" stroke-linejoin="round"/></g></g><g id="29t3h8xtvz"><g><path d="M 460,240 L 675,775" fill="none" stroke="#000846" stroke-width="2" stroke-linecap="round" stroke-linejoin="round"/></g></g></svg>